<?xml version="1.0" encoding="utf-8"?>
<!-- Generator: Adobe Illustrator 28.0.0, SVG Export Plug-In . SVG Version: 6.00 Build 0)  -->
<svg version="1.1" id="Layer_1" xmlns="http://www.w3.org/2000/svg" xmlns:xlink="http://www.w3.org/1999/xlink" x="0px" y="0px"
	 viewBox="0 0 277.55 400.15" style="enable-background:new 0 0 277.55 400.15;" xml:space="preserve">
<style type="text/css">
	.st0{fill:#1F4E2C;stroke:#1F4E2C;stroke-miterlimit:10;}
	.st1{fill:#010101;stroke:#010101;stroke-miterlimit:10;}
	.st2{fill:#010101;}
	.st3{fill:#D8792D;stroke:#FFFFFF;stroke-width:1.14;stroke-miterlimit:10;}
	.st4{fill:none;stroke:#533111;stroke-width:3;stroke-miterlimit:10;}
	.st5{fill:none;stroke:#FFFFFF;stroke-width:0.855;stroke-linecap:round;stroke-linejoin:round;stroke-miterlimit:10;}
	.st6{fill:#533111;stroke:#533111;stroke-miterlimit:10;}
	.st7{fill:#533111;}
	.st8{fill:none;}
	.st9{fill:#D8792D;}
	.st10{font-family:'DINAlternate-Bold';}
	.st11{font-size:18.2072px;}
	.st12{fill:none;stroke:#010101;stroke-miterlimit:10;}
</style>
<g>
	<path class="st0" d="M70.76,188.7L62.2,12.15h98.64l-7.91,163.16c2.18,12.35,6.8,17.1,10.7,19.12c8.23,4.28,15.04-2.64,34.46-3.64
		c10.21-0.52,19.38-0.99,27.62,4.85c11.06,7.83,12.47,21.35,12.6,22.77c1.2,13.54-6.66,22.74-8.02,24.28c-39.52,0-79.03,0-118.55,0
		c0,0-59.41-6.73-59.41-6.73c-1.72-9.09-0.29-15.76,0.89-19.5c1.67-5.26,4.22-9.05,9.21-16.47
		C65.67,195.16,68.63,191.33,70.76,188.7z"/>
	<path class="st1" d="M97.79,252.33v5.81c-1.39,0.38-3.54,0.75-5.81,0c-2.72-0.89-3.22-2.59-5.33-2.66c-2.58-0.08-3,2.42-5.81,2.66
		c-2.91,0.25-3.52-2.34-6.78-2.42c-3.18-0.08-3.57,2.36-6.78,2.42c-3.39,0.06-4.31-2.62-7.75-2.9c-1.67-0.14-4.09,0.28-7.19,2.9
		l-0.21-18.81l59.41,6.73c39.52,0,79.03,0,118.55,0c2.69,0.92,4.46,3.49,4.36,6.27c-0.09,2.62-1.83,4.94-4.36,5.81
		c-1.34,0.4-3.33,0.76-5.33,0c-2.45-0.93-2.73-2.71-4.6-2.9c-2.48-0.25-3.15,2.74-6.06,2.9c-2.68,0.15-3.13-2.34-6.06-2.42
		c-3.08-0.08-3.8,2.66-6.78,2.42c-2.46-0.2-2.56-2.12-5.09-2.42c-3.06-0.36-3.81,2.35-7.27,2.42c-3.12,0.06-3.45-2.12-6.78-2.17
		c-3.35-0.05-3.71,2.15-7.03,2.17c-3.67,0.03-4.31-2.66-7.75-2.42c-3.05,0.22-3.34,2.38-6.3,2.42c-3.02,0.04-3.39-2.21-6.54-2.42
		c-3.54-0.23-4.17,2.53-7.75,2.42c-3.26-0.1-4.03-2.43-7.27-2.66c-2.8-0.19-5.19,1.33-6.78,2.66l-9.69-5.81H97.79z"/>
	
		<rect x="90.93" y="48.28" transform="matrix(0.7071 -0.7071 0.7071 0.7071 -16.0856 99.1503)" class="st2" width="41.43" height="41.43"/>
	
		<rect x="93" y="50.35" transform="matrix(0.7071 -0.7071 0.7071 0.7071 -16.0856 99.1503)" class="st3" width="37.29" height="37.29"/>
	<path class="st4" d="M230.07,258.14c-1.34,0.4-3.33,0.76-5.33,0c-2.45-0.93-2.73-2.71-4.6-2.9c-2.48-0.25-3.15,2.74-6.06,2.9
		c-2.68,0.15-3.13-2.34-6.06-2.42c-3.08-0.08-3.8,2.66-6.78,2.42c-2.46-0.2-2.56-2.12-5.09-2.42c-3.06-0.36-3.81,2.35-7.27,2.42
		c-3.12,0.06-3.45-2.12-6.78-2.17c-3.35-0.05-3.71,2.15-7.03,2.17c-3.67,0.03-4.31-2.66-7.75-2.42c-3.05,0.22-3.34,2.38-6.3,2.42
		c-3.02,0.04-3.39-2.21-6.54-2.42c-3.54-0.23-4.17,2.53-7.75,2.42c-3.26-0.1-4.03-2.43-7.27-2.66c-2.8-0.19-5.19,1.33-6.78,2.66
		l-9.69-5.81h-25.2v5.81c-1.39,0.38-3.54,0.75-5.81,0c-2.72-0.89-3.22-2.59-5.33-2.66c-2.58-0.08-3,2.42-5.81,2.66
		c-2.91,0.25-3.52-2.34-6.78-2.42c-3.18-0.08-3.57,2.36-6.78,2.42c-3.39,0.06-4.31-2.62-7.75-2.9c-1.67-0.14-4.09,0.28-7.19,2.9"/>
	<g>
		<path class="st5" d="M105.94,54.63c-0.07,2.12,0.2,4.71,1.93,6.08c1.73,1.36,3.4,0.3,5.8,1.66c2.05,1.16,3.88,3.65,3.87,6.35
			c-0.02,4.12-4.31,6.68-4.7,6.9c-2.74,1.58-4.64,0.79-6.08,2.49c-1.24,1.47-1.13,3.63-0.83,5.25"/>
		<path class="st5" d="M113.97,76.82c1,0.21,1.83,0.44,2.55,1.29c1.24,1.47,1.13,3.63,0.83,5.25"/>
		<path class="st5" d="M110.44,75.62"/>
		<path class="st5" d="M110.01,75.35"/>
		<path class="st5" d="M108.17,63.43c-1.4,1.32-2.44,3.24-2.43,5.28c0.02,3.2,2.6,5.46,3.94,6.41"/>
		<path class="st5" d="M117.34,54.63c0.07,2.12-0.2,4.71-1.93,6.08"/>
		<line class="st5" x1="108.07" y1="55.27" x2="115.33" y2="55.27"/>
		<line class="st5" x1="109.06" y1="57.34" x2="114.34" y2="57.34"/>
		<line class="st5" x1="109.72" y1="59.41" x2="113.68" y2="59.41"/>
		<line class="st5" x1="115.33" y1="82.92" x2="108.07" y2="82.92"/>
		<line class="st5" x1="114.34" y1="80.85" x2="109.06" y2="80.85"/>
		<line class="st5" x1="113.68" y1="78.78" x2="109.72" y2="78.78"/>
		<line class="st5" x1="107.68" y1="68.69" x2="115.72" y2="68.69"/>
		<line class="st5" x1="108.78" y1="66.74" x2="114.63" y2="66.74"/>
		<line class="st5" x1="109.28" y1="64.79" x2="114.12" y2="64.79"/>
		<line class="st5" x1="108.78" y1="70.63" x2="114.63" y2="70.63"/>
		<line class="st5" x1="109.28" y1="72.58" x2="114.12" y2="72.58"/>
	</g>
	<g>
		<path class="st6" d="M68.95,294.22c0,0-6.43-19.44-9.65-29.15v30.98c0.09,0.97,0.19,2.16,0.28,3.52
			c1.18,18.54,5.62,37.6-4.01,36.69s-3.02-9.22-4.62-40.21v-35.51c0-1.96,0.51-3.28,1.53-3.96c1.02-0.68,2.4-1.03,4.13-1.03h2.82
			c1.69,0,2.92,0.15,3.69,0.46c0.76,0.31,1.33,0.86,1.7,1.65c0.37,0.8,0.79,2.09,1.26,3.89l6.52,24.58l6.52-24.58
			c0.47-1.8,0.89-3.09,1.26-3.89c0.37-0.8,0.93-1.35,1.7-1.65c0.77-0.31,1.99-0.46,3.69-0.46h2.82c1.73,0,3.11,0.34,4.13,1.03
			c1.02,0.68,1.53,2.01,1.53,3.96c-0.08,8.68-0.15,17.37-0.23,26.05c-0.52,9.7-0.73,14.68-0.82,17.44c-0.03,0.95-0.1,3.18-0.24,6.3
			c-0.21,4.48-0.26,4.01-0.24,4.85c0.13,5.32,1.91,6.75,0.8,9.49c-0.11,0.28-1.15,2.74-3.22,3.11c-1.89,0.34-3.56-1.26-3.63-1.33
			c-2.9-2.86-0.3-8.39,0.61-18.41c0.35-3.94,0.32-7.17,0.24-9.21c-0.54-11.25-1.07-22.5-1.61-33.76
			c-3.54,9.72-11.54,23.19-10.62,29.15c0.91,5.96,3.63,16.23-2.42,16.23C66.77,310.46,68.95,294.22,68.95,294.22z"/>
		<path class="st6" d="M103.63,281.88c0-4.4,0-8.81,0-13.21c0.24-5.7,0.02-9.72-0.27-12.54c-0.1-0.98-0.35-3.07,0.73-3.8
			c0.73-0.5,1.55-0.01,4.72,0c1.5,0,1.64,0,1.64,0c1.42-0.04,1.55-0.13,1.82,0c1.04,0.52,0.85,3.1,0.81,3.61
			c-0.22,2.81-0.34,6.56-0.35,11.82c0.2,6.45,0.23,11.24,0,14.61c0,0-0.19,3.2,0.84,6.29c0.56,1.68,1.56,2.99,2.98,3.92
			c1.43,0.93,3.43,1.39,6,1.39c3.55,0,6.06-0.94,7.53-2.83c1.47-1.89,2.2-4.75,2.2-8.59V260.3c0-1.86,0.41-3.24,1.22-4.15
			c0.82-0.91,1.91-1.36,3.28-1.36c1.37,0,2.47,0.45,3.32,1.36c0.85,0.91,1.27,2.29,1.27,4.15c0,6.67-0.66,26-1.03,30.37
			c-0.2,2.37-0.33,4.23-0.43,5.83c0,0-0.38,5.65-0.59,10.87c-0.61,15.34,3.93,32.88-0.91,35.07c-1.47,0.66-3.54-0.2-4.54-1.27
			c-1.17-1.25-0.9-2.79-0.36-8.9c0.53-6.07,0.36-5.62,0.84-9.78c0.21-1.85,0.41-3.33,0.8-6.2c1.67-12.38,2.03-14.97,0.55-15.99
			c-0.84-0.58-2.2-0.43-4.92-0.13c-1.37,0.15-1.73,0.21-4.4,0.71c-0.85,0.16-1.89,0.29-3.19,0.33c-5.26,0.15-7.15-1.45-8.91-1.12
			c-8.6,1.63,3.12,48.42-7.05,48.42s-0.13-44.34-2.5-57.88C104.55,289.58,103.63,286.36,103.63,281.88z"/>
		<path class="st6" d="M189.43,286.25c0,1.43-0.35,2.97-1.06,4.64c-0.7,1.66-1.81,3.3-3.32,4.9c-1.51,1.6-3.44,2.9-5.79,3.9
			c-2.35,1-5.08,1.5-8.2,1.5c-2.37,0-4.52-0.22-6.46-0.67c-1.94-0.45-3.7-1.15-5.28-2.1c-1.58-0.95-3.04-2.2-4.36-3.75
			c-1.18-1.41-2.19-2.98-3.03-4.73c-0.84-1.74-1.46-3.61-1.88-5.59c-0.42-1.98-0.63-4.08-0.63-6.31c0-3.61,0.52-6.85,1.58-9.7
			c1.05-2.86,2.56-5.3,4.52-7.33c1.96-2.03,4.26-3.58,6.89-4.64c2.63-1.06,5.44-1.59,8.42-1.59c3.63,0,6.87,0.72,9.7,2.17
			c2.84,1.45,5.01,3.24,6.52,5.37c1.51,2.13,2.27,4.15,2.27,6.05c0,1.04-0.37,1.96-1.1,2.76c-0.73,0.8-1.62,1.19-2.66,1.19
			c-1.16,0-2.04-0.28-2.62-0.83c-0.58-0.55-1.23-1.5-1.94-2.85c-1.18-2.22-2.58-3.89-4.18-4.99c-1.6-1.1-3.58-1.65-5.92-1.65
			c-3.73,0-6.71,1.42-8.92,4.26c-2.21,2.84-3.32,6.87-3.32,12.09c0,3.49,0.49,6.39,1.47,8.71c0.98,2.32,2.37,4.05,4.16,5.19
			c1.8,1.14,3.9,1.71,6.31,1.71c2.61,0,4.82-0.65,6.63-1.94c1.81-1.3,3.17-3.2,4.09-5.71c0.39-1.18,0.87-2.15,1.44-2.89
			c0.57-0.75,1.49-1.12,2.76-1.12c1.08,0,2.01,0.38,2.79,1.13C189.04,284.19,189.43,285.13,189.43,286.25z"/>
		<path class="st6" d="M236.12,290.89c-3.14,12.27,5.81,54.69-4.36,54.69c-10.18,0,5.52-44.39-4.75-45.89
			c-1.51-0.3-3.04,1.5-8.2,1.5c-2.37,0-4.52-0.22-6.46-0.67c-3.62-0.84-4.26-2.24-5.28-2.1c-5.38,0.74,5.31,38.68-4.87,38.44
			c-10.18-0.24,4.87-38.44-2.52-46.92c-0.2-0.44-1.24-2.54-1.88-5.59c-0.42-1.98-0.63-4.08-0.63-6.31c0-3.61,0.52-6.85,1.58-9.7
			c1.05-2.86,2.56-5.3,4.52-7.33c1.96-2.03,4.26-3.58,6.89-4.64c2.63-1.06,5.44-1.59,8.42-1.59c3.63,0,6.87,0.72,9.7,2.17
			c2.84,1.45,5.01,3.24,6.52,5.37c1.51,2.13,2.27,4.15,2.27,6.05c0,1.04-0.37,1.96-1.1,2.76c-0.73,0.8-1.62,1.19-2.66,1.19
			c-1.16,0-2.04-0.28-2.62-0.83c-1.08-1.02-1.63-2.12-1.94-2.85c-1.39-3.24-3.63-5.44-7.08-5.62s0.36,6.72-2.91,7.09
			s1.27-5.81-2.54-7.27c-3.82-1.45-4.97,1.64-6.49,3.41c-3.17,3.69-3.32,8.32-3.32,12.09c0,3.49,0.49,6.39,1.47,8.71
			c0.98,2.32,2.37,4.05,4.16,5.19c2.45,1.56,6.31,1.71,6.31,1.71c1.99-0.18,7.64-0.96,11.98-5.54c1.46-1.54,2.42-3.14,3.06-4.48
			c1.09-1.12,2.56-2.41,3.38-2.01C238.3,282.72,236.56,289.15,236.12,290.89z"/>
	</g>
	<path class="st7" d="M136.71,305.49c0.32-0.15,0.58-0.41,0.67-0.78c0.34-1.55,0.33-3.6-1.47-4.23c-0.93-0.33-2.11-0.09-3.07-0.05
		c-0.12,0.01-0.24,0.01-0.36,0.01c-0.52-0.31-1.02-0.23-1.4,0.05c-0.67,0.03-1.35,0.05-2.02,0.08c-3.31,0.11-6.62,0.13-9.93,0.11
		c-1.24-2.48-6.66,0.47-8.02,1.69c-0.64,0.58-0.5,1.35-0.04,1.84c-1.24,0.88-2.15,2.12-2.38,3.89c-0.06,0.42,0.13,0.73,0.15,0.8
		c0.62,1.84,1.73,18.07,2.61,18.1c0.93,0.03-0.98-18.5,6.84-22.34c3.54-1.73,8.42-0.14,8.86,0.01c1.37,0.46,4.79,1.62,6.55,4.7
		c3.17,5.54-1.89,12.31,1.45,15.26c0.15,0.13,1.15,1.01,2,0.73c2.25-0.76,1.36-9.01,1.06-11.74
		C137.84,310.17,137.21,307.37,136.71,305.49z"/>
	<path class="st7" d="M187.09,291.78c-0.09-0.11-0.94,0.3-1.47,1.08c-0.5,0.74-0.55,1.69-0.34,2.67c-0.01,0.02-0.03,0.03-0.04,0.05
		c-0.82,1.38-1.91,2.58-3.3,3.42c-0.22,0.13-0.44,0.25-0.67,0.36c-0.18-0.13-0.41-0.21-0.68-0.22c-1.33-0.04-3.32,0.16-3.84,1.62
		c-0.6-0.89-2.09-0.8-2.35,0.43c-0.37-0.49-1.09-0.57-1.66-0.27l-0.16-0.67c-0.27-1.11-1.74-1.27-2.35-0.54
		c-0.27-1.51-2.49-1.63-2.62,0.05c-0.01,0.08-0.01,0.16-0.02,0.24c-0.11-0.04-0.22-0.07-0.33-0.09c-0.25-0.03-0.5-0.05-0.74-0.07
		c-0.73-1.31-2.32-2.12-3.98-1.6c-0.17,0.05-0.3,0.14-0.42,0.23c-0.46-1.21-1.13-2.28-2.11-3.13c-0.73-0.63-1.57-1.44-2.8-1.49
		c-0.73-0.03-1.97,0.2-2.24,0.83c-0.83,1.87,8.52,4.38,10.53,11.24c0.85,2.9,0.21,5.91-0.55,9.45c-0.78,3.63-1.62,4.36-2,7.99
		c-0.26,2.46-0.5,4.97,0.73,7.63c0.28,0.6,2.71,5.7,6.9,5.63c3.76-0.06,5.98-4.21,6.36-4.92c1.55-2.89,1.25-5.76,1.09-7.07
		c-0.53-4.1-2.47-5.09-3.3-8.71c-0.86-3.76,0.25-6.97,1.12-9.46C179.07,297.24,187.42,292.18,187.09,291.78z"/>
	<path class="st7" d="M146.96,292.1"/>
	<path class="st7" d="M156.05,320.63"/>
	<path class="st7" d="M195.49,298.97c-1.49-1.21-4.26-0.95-5.16,0.82c-0.82,1.6,0.3,3.66,1.64,4.39c0.44,0.24,0.82,0.29,0.95,0.31
		c1.51,0.18,3.45-1,3.68-2.79C196.73,300.67,196.26,299.6,195.49,298.97z"/>
	<path class="st7" d="M150.19,314.24c-1.49-0.42-3.03,1.37-3.68,2.79c-0.37,0.8-0.44,1.89,0.15,2.42c0.27,0.24,0.61,0.29,0.95,0.31
		c2.08,0.14,3.27,0.22,3.95-0.58C152.7,317.85,151.9,314.72,150.19,314.24z"/>
	<path class="st7" d="M186.45,319.66"/>
	<rect x="-30.54" y="349.02" class="st8" width="348.37" height="78.98"/>
	<text transform="matrix(1 0 0 1 22.9966 361.9839)"><tspan x="0" y="0" class="st9 st10 st11">M</tspan><tspan x="13.8" y="0" class="st2 st10 st11">icrobiomes for </tspan><tspan x="128.69" y="0" class="st9 st10 st11">U</tspan><tspan x="140.15" y="0" class="st2 st10 st11">nderstanding</tspan><tspan x="60.81" y="21.85" class="st9 st10 st11">C</tspan><tspan x="70.94" y="21.85" class="st2 st10 st11">limate </tspan><tspan x="123.14" y="21.85" class="st9 st10 st11">C</tspan><tspan x="133.27" y="21.85" class="st2 st10 st11">hange</tspan></text>
	<line class="st12" x1="62.2" y1="12.15" x2="160.84" y2="12.15"/>
</g>
<text transform="matrix(1 0 0 1 289.9141 788)" style="font-family:'ArialMT'; font-size:11px;">!</text>
</svg>
